<?xml version="1.0" encoding="UTF-8"?>
<svg xmlns="http://www.w3.org/2000/svg" xmlns:xlink="http://www.w3.org/1999/xlink" width="375pt" height="374.999991pt" viewBox="0 0 375 374.999991" version="1.2">
<defs>
<clipPath id="clip1">
  <path d="M 75.339844 75.339844 L 299.589844 75.339844 L 299.589844 299.589844 L 75.339844 299.589844 Z M 75.339844 75.339844 "/>
</clipPath>
</defs>
<g id="surface1">
<rect x="0" y="0" width="375" height="374.999991" style="fill:rgb(100%,100%,100%);fill-opacity:1;stroke:none;"/>
<rect x="0" y="0" width="375" height="374.999991" style="fill:rgb(100%,100%,100%);fill-opacity:1;stroke:none;"/>
<path style=" stroke:none;fill-rule:nonzero;fill:rgb(100%,74.119568%,34.899902%);fill-opacity:1;" d="M 330.230469 301.019531 C 330.230469 316.652344 316.605469 329.34375 302.070312 329.34375 L 65.890625 329.34375 C 61.804688 329.34375 57.714844 328.4375 54.082031 326.851562 C 58.851562 331.835938 65.4375 334.78125 72.703125 334.78125 L 308.882812 334.78125 C 323.191406 334.78125 335 322.996094 335 308.722656 L 335 73.527344 C 335 66.957031 332.5 61.066406 328.640625 56.53125 C 329.777344 59.480469 330.230469 62.652344 330.230469 65.824219 Z M 330.230469 301.019531 "/>
<path style=" stroke:none;fill-rule:nonzero;fill:rgb(0%,29.019165%,67.83905%);fill-opacity:1;" d="M 65.890625 327.078125 L 301.617188 327.078125 C 315.921875 327.078125 327.730469 315.292969 327.730469 301.019531 L 327.730469 65.824219 C 327.730469 51.546875 315.921875 39.765625 301.617188 39.765625 L 65.890625 39.765625 C 51.582031 39.765625 39.773438 51.546875 39.773438 65.824219 L 39.773438 301.019531 C 39.773438 315.519531 51.582031 327.078125 65.890625 327.078125 Z M 65.890625 327.078125 "/>
<path style=" stroke:none;fill-rule:nonzero;fill:rgb(0%,29.019165%,67.83905%);fill-opacity:1;" d="M 325.6875 50.867188 C 320.691406 42.9375 311.835938 37.5 301.617188 37.5 L 65.890625 37.5 C 50.222656 37.5 37.503906 50.1875 37.503906 65.824219 L 37.503906 301.019531 C 37.503906 310.308594 42.046875 318.464844 48.859375 323.675781 C 53.855469 331.609375 62.710938 337.046875 72.929688 337.046875 L 308.65625 337.046875 C 324.324219 337.046875 337.042969 324.355469 337.042969 308.722656 L 337.042969 73.527344 C 337.042969 64.238281 332.5 56.078125 325.6875 50.867188 Z M 39.773438 301.019531 L 39.773438 65.824219 C 39.773438 51.546875 51.582031 39.765625 65.890625 39.765625 L 301.617188 39.765625 C 315.921875 39.765625 327.730469 51.546875 327.730469 65.824219 L 327.730469 301.019531 C 327.730469 315.292969 315.921875 327.078125 301.617188 327.078125 L 65.890625 327.078125 C 51.582031 327.078125 39.773438 315.519531 39.773438 301.019531 Z M 335 308.722656 C 335 322.996094 322.960938 334.78125 308.65625 334.78125 L 72.929688 334.78125 C 65.664062 334.78125 59.078125 331.835938 54.308594 326.851562 C 57.941406 328.4375 61.804688 329.34375 66.117188 329.34375 L 301.84375 329.34375 C 317.511719 329.34375 330.230469 316.652344 330.230469 301.019531 L 330.230469 65.824219 C 330.230469 62.652344 329.546875 59.480469 328.640625 56.53125 C 332.5 61.066406 335 66.957031 335 73.527344 Z M 335 308.722656 "/>
<g clip-path="url(#clip1)" clip-rule="nonzero">
<path style=" stroke:none;fill-rule:nonzero;fill:rgb(100%,74.119568%,34.899902%);fill-opacity:1;" d="M 187.464844 75.339844 C 125.671875 75.339844 75.339844 125.671875 75.339844 187.464844 C 75.339844 249.257812 125.671875 299.589844 187.464844 299.589844 C 249.257812 299.589844 299.589844 249.257812 299.589844 187.464844 C 299.589844 125.671875 249.257812 75.339844 187.464844 75.339844 Z M 187.464844 97.765625 C 237.136719 97.765625 277.164062 137.792969 277.164062 187.464844 C 277.164062 237.136719 237.136719 277.164062 187.464844 277.164062 C 137.792969 277.164062 97.765625 237.136719 97.765625 187.464844 C 97.765625 137.792969 137.792969 97.765625 187.464844 97.765625 Z M 153.828125 142.617188 L 153.828125 232.316406 L 172.3125 232.316406 L 172.3125 206.691406 L 181.925781 196.335938 L 204.964844 232.316406 L 226.949219 232.316406 L 194.167969 182.472656 L 226.03125 142.617188 L 203.296875 142.617188 L 180.4375 172.113281 L 172.3125 183.28125 L 172.3125 142.617188 Z M 153.828125 142.617188 "/>
</g>
</g>
</svg>
